<svg width="749" height="666" viewBox="0 0 749 666" fill="none" xmlns="http://www.w3.org/2000/svg">
<g clip-path="url(#clip0_7_78)">
<path d="M334.948 375.846C281.935 390.347 269.351 386.273 259.9 400.475C255.751 406.55 253.807 413.86 254.392 421.19C255.173 427.976 258.208 434.304 263.012 439.166C281.175 456.751 331.191 435.253 359.818 411.753C366.064 406.62 382.867 392.879 379.432 383.097C378.05 379.092 373.762 377.112 370.674 375.731C357.167 369.609 342.946 373.637 334.948 375.846Z" fill="url(#paint0_linear_7_78)"/>
<path d="M171.139 19.7256H182.433V93.7256H171.139V19.7256Z" fill="url(#paint1_linear_7_78)"/>
<path d="M137.787 85.9689H215.762C221.515 85.9689 226.18 90.6268 226.18 96.3726V124.2C226.18 129.946 221.515 134.604 215.762 134.604H137.787C132.033 134.604 127.369 129.946 127.369 124.2V96.3726C127.369 90.6268 132.033 85.9689 137.787 85.9689Z" fill="url(#paint2_linear_7_78)"/>
<path d="M208.547 109.239H145.116C126.056 109.215 107.178 112.943 89.5615 120.21C71.945 127.478 55.9359 138.141 42.4496 151.592C28.9633 165.042 18.2644 181.016 10.9647 198.599C3.66506 216.181 -0.0922233 235.029 -0.0922079 254.063V296.345C-0.0922079 317.931 8.49447 338.632 23.7789 353.896C39.0634 369.159 59.7935 377.734 81.409 377.734H272.047C293.663 377.734 314.393 369.159 329.677 353.896C344.962 338.632 353.548 317.931 353.548 296.345V254.063C353.548 215.653 338.269 178.817 311.072 151.657C283.875 124.497 246.987 109.239 208.524 109.239H208.547Z" fill="url(#paint3_linear_7_78)"/>
<path d="M55.6172 288.634C60.3102 290.927 65.4667 292.116 70.6912 292.11H282.88C288.105 292.116 293.261 290.927 297.954 288.634C303.319 286.185 307.77 282.101 310.668 276.97C313.567 271.839 314.764 265.923 314.089 260.07L313.973 259.219C308.534 219.859 272.831 189.615 229.061 187.336C210.622 186.369 191.122 185.886 170.862 186.001C154.989 186.093 139.623 186.531 124.764 187.313C80.8328 189.615 44.8764 219.721 39.4829 259.219V260.07C38.8002 265.924 39.9943 271.843 42.8935 276.975C45.7927 282.108 50.2476 286.19 55.6172 288.634V288.634Z" fill="url(#paint4_linear_7_78)"/>
<path style="mix-blend-mode:screen" d="M232.703 283.433C210.604 283.433 192.689 265.543 192.689 243.475C192.689 221.407 210.604 203.517 232.703 203.517C254.801 203.517 272.716 221.407 272.716 243.475C272.716 265.543 254.801 283.433 232.703 283.433Z" fill="url(#paint5_radial_7_78)"/>
<path d="M232.703 272.154C216.841 272.154 203.984 259.314 203.984 243.475C203.984 227.636 216.841 214.796 232.703 214.796C248.564 214.796 261.422 227.636 261.422 243.475C261.422 259.314 248.564 272.154 232.703 272.154Z" fill="#EEFDFF"/>
<path d="M232.703 267.551C219.387 267.551 208.593 256.772 208.593 243.475C208.593 230.178 219.387 219.399 232.703 219.399C246.018 219.399 256.812 230.178 256.812 243.475C256.812 256.772 246.018 267.551 232.703 267.551Z" fill="url(#paint6_linear_7_78)"/>
<path d="M217.26 237.237C217.255 239.006 217.776 240.735 218.757 242.208C219.738 243.68 221.135 244.828 222.77 245.507C224.405 246.186 226.205 246.364 227.942 246.02C229.679 245.677 231.274 244.826 232.526 243.575C233.779 242.325 234.631 240.731 234.975 238.997C235.319 237.262 235.14 235.465 234.461 233.832C233.781 232.199 232.631 230.805 231.157 229.825C229.683 228.846 227.95 228.325 226.18 228.33C223.816 228.336 221.551 229.276 219.879 230.945C218.208 232.615 217.266 234.877 217.26 237.237V237.237Z" fill="#EEFDFF"/>
<path d="M236.275 265.525C234.302 265.525 232.703 263.928 232.703 261.958C232.703 259.987 234.302 258.39 236.275 258.39C238.248 258.39 239.848 259.987 239.848 261.958C239.848 263.928 238.248 265.525 236.275 265.525Z" fill="#EEFDFF"/>
<path d="M245.103 256.618C245.103 256.973 245.208 257.32 245.406 257.615C245.604 257.91 245.884 258.14 246.213 258.276C246.541 258.412 246.903 258.448 247.251 258.379C247.6 258.309 247.921 258.138 248.172 257.887C248.423 257.636 248.595 257.316 248.664 256.968C248.733 256.62 248.698 256.259 248.562 255.931C248.426 255.603 248.195 255.322 247.9 255.125C247.604 254.928 247.256 254.822 246.901 254.822C246.665 254.822 246.431 254.869 246.213 254.959C245.995 255.049 245.796 255.181 245.63 255.348C245.463 255.515 245.33 255.713 245.24 255.931C245.149 256.148 245.103 256.382 245.103 256.618V256.618Z" fill="#EEFDFF"/>
<path style="mix-blend-mode:screen" d="M124.626 283.433C102.527 283.433 84.6128 265.543 84.6128 243.475C84.6128 221.407 102.527 203.517 124.626 203.517C146.724 203.517 164.639 221.407 164.639 243.475C164.639 265.543 146.724 283.433 124.626 283.433Z" fill="url(#paint7_radial_7_78)"/>
<path d="M124.626 272.154C108.765 272.154 95.9069 259.314 95.9069 243.475C95.9069 227.636 108.765 214.796 124.626 214.796C140.487 214.796 153.345 227.636 153.345 243.475C153.345 259.314 140.487 272.154 124.626 272.154Z" fill="#EEFDFF"/>
<path d="M124.626 267.551C111.311 267.551 100.517 256.772 100.517 243.475C100.517 230.178 111.311 219.399 124.626 219.399C137.941 219.399 148.735 230.178 148.735 243.475C148.735 256.772 137.941 267.551 124.626 267.551Z" fill="url(#paint8_linear_7_78)"/>
<path d="M109.183 237.237C109.179 239.006 109.7 240.735 110.681 242.208C111.662 243.68 113.058 244.828 114.693 245.507C116.328 246.186 118.128 246.364 119.865 246.02C121.602 245.677 123.198 244.826 124.45 243.575C125.702 242.325 126.554 240.731 126.898 238.997C127.243 237.262 127.064 235.465 126.384 233.832C125.704 232.199 124.554 230.805 123.08 229.825C121.606 228.846 119.874 228.325 118.103 228.33C115.739 228.336 113.474 229.276 111.802 230.945C110.131 232.615 109.189 234.877 109.183 237.237V237.237Z" fill="#EEFDFF"/>
<path d="M128.199 265.525C126.225 265.525 124.626 263.928 124.626 261.958C124.626 259.987 126.225 258.39 128.199 258.39C130.172 258.39 131.771 259.987 131.771 261.958C131.771 263.928 130.172 265.525 128.199 265.525Z" fill="#EEFDFF"/>
<path d="M137.026 256.618C137.026 256.973 137.132 257.32 137.329 257.615C137.527 257.91 137.807 258.14 138.136 258.276C138.465 258.412 138.826 258.448 139.175 258.379C139.524 258.309 139.844 258.138 140.095 257.887C140.347 257.636 140.518 257.316 140.587 256.968C140.657 256.62 140.621 256.259 140.485 255.931C140.349 255.603 140.118 255.322 139.823 255.125C139.527 254.928 139.18 254.822 138.824 254.822C138.588 254.822 138.354 254.869 138.136 254.959C137.918 255.049 137.72 255.181 137.553 255.348C137.386 255.515 137.253 255.713 137.163 255.931C137.073 256.148 137.026 256.382 137.026 256.618V256.618Z" fill="#EEFDFF"/>
<path d="M162.311 14.8C162.311 17.6589 163.16 20.4535 164.75 22.8306C166.341 25.2077 168.602 27.0604 171.246 28.1544C173.891 29.2485 176.802 29.5347 179.61 28.977C182.417 28.4193 184.997 27.0426 187.021 25.021C189.045 22.9995 190.424 20.4239 190.982 17.62C191.541 14.816 191.254 11.9097 190.159 9.2684C189.063 6.62714 187.208 4.36962 184.827 2.78131C182.447 1.193 179.649 0.345245 176.786 0.345245C172.947 0.345245 169.265 1.86815 166.55 4.57894C163.836 7.28973 162.311 10.9664 162.311 14.8V14.8Z" fill="url(#paint9_linear_7_78)"/>
<path d="M166.736 9.20684C166.736 10.0763 166.994 10.9263 167.478 11.6493C167.962 12.3722 168.65 12.9357 169.454 13.2685C170.258 13.6012 171.144 13.6883 171.998 13.5186C172.852 13.349 173.636 12.9303 174.252 12.3155C174.867 11.7006 175.287 10.9173 175.456 10.0645C175.626 9.21172 175.539 8.32778 175.206 7.52447C174.873 6.72115 174.308 6.03455 173.584 5.55148C172.861 5.06841 172.009 4.81058 171.139 4.81058C170.56 4.80753 169.986 4.91916 169.45 5.13901C168.915 5.35886 168.428 5.68257 168.019 6.09141C167.61 6.50025 167.285 6.98611 167.065 7.52086C166.845 8.05562 166.733 8.62867 166.736 9.20684Z" fill="white"/>
<path d="M52.229 155.55C52.0216 162.294 57.5533 170.373 63.8687 171.063C69.7693 171.708 74.4943 165.654 79.3807 159.555C84.2671 153.455 94.6852 137.642 90.5134 133.177C84.9816 127.169 52.6669 139.645 52.229 155.55Z" fill="white"/>
<path d="M106.302 129.839C103.527 129.839 101.277 127.593 101.277 124.822C101.277 122.051 103.527 119.804 106.302 119.804C109.077 119.804 111.327 122.051 111.327 124.822C111.327 127.593 109.077 129.839 106.302 129.839Z" fill="white"/>
<path d="M52.9204 249.114C54.5338 250.242 65.7818 227.363 95.9529 207.545C106.578 200.64 117.043 195.599 116.42 194.149C115.798 192.699 103.997 195.415 94.5469 199.788C64.4449 213.737 51.0304 247.756 52.9204 249.114Z" fill="white"/>
<path d="M130.25 100.378C130.596 100.378 130.826 98.306 132.555 95.0606C133.077 94.0801 133.662 93.1345 134.307 92.2295C137.349 88.0634 147.606 88.1555 148.413 88.1555C164.547 88.2936 174.711 87.2809 174.711 87.3959C174.711 87.511 167.197 87.3959 161.712 87.2118C146.2 86.8896 136.957 86.0609 132.993 90.204C131.933 91.3601 131.097 92.7025 130.527 94.163C129.443 97.2012 129.812 100.309 130.25 100.378Z" fill="white"/>
<path d="M133.592 309.258C133.819 311.118 134.681 312.843 136.033 314.143C137.384 315.443 139.144 316.238 141.014 316.393L194.026 321.503C195.892 321.709 197.772 321.265 199.347 320.246C200.922 319.227 202.096 317.695 202.67 315.91C203.184 314.254 203.569 312.561 203.822 310.846C203.858 310.608 203.844 310.365 203.783 310.132C203.721 309.899 203.612 309.681 203.463 309.492C203.315 309.302 203.129 309.145 202.917 309.029C202.705 308.914 202.472 308.843 202.232 308.821L135.39 302.399C135.158 302.373 134.923 302.397 134.7 302.468C134.478 302.54 134.273 302.657 134.099 302.813C133.913 302.963 133.763 303.152 133.659 303.367C133.556 303.582 133.501 303.817 133.5 304.056C133.403 305.79 133.434 307.528 133.592 309.258Z" fill="#EEFDFF"/>
<path d="M50.0624 428.118C50.0624 428.602 50.0624 429.085 50.0624 429.522C50.1984 432.658 50.7804 435.758 51.7911 438.729C66.3811 483.359 75.1397 506.768 87.494 525.757C89.5914 529.025 91.8272 532.179 94.2243 535.263C97.359 539.383 100.77 543.411 104.596 547.554C113.055 556.761 125.871 560.927 129.95 562.354C145.047 567.671 158.393 566.704 167.243 566.796H168.788C177.685 566.796 191.007 567.671 206.104 562.354C210.23 560.927 223.068 556.761 231.458 547.554C254.761 522.235 263.727 501.221 284.148 438.798C285.115 435.99 285.689 433.062 285.854 430.098C285.923 428.894 285.923 427.688 285.854 426.484C285.215 418.58 282.121 411.072 277.003 405.009C272.363 399.405 266.533 394.902 259.936 391.824C253.338 388.747 246.138 387.173 238.857 387.217L167.935 386.918L98.327 386.641C90.8799 386.527 83.5007 388.069 76.7237 391.154C69.9468 394.239 63.9418 398.791 59.1437 404.48C54.7599 409.619 51.7823 415.804 50.5004 422.433C50.3621 423.331 50.2237 424.228 50.1546 425.126C50.0854 426.024 50.0624 427.105 50.0624 428.118Z" fill="url(#paint10_linear_7_78)"/>
<path d="M167.981 386.918L238.88 387.217C246.17 387.178 253.376 388.763 259.975 391.857C266.574 394.951 272.399 399.475 277.026 405.101C282.162 411.144 285.259 418.651 285.877 426.553C285.292 418.416 282.054 410.695 276.657 404.572C271.864 398.877 265.86 394.321 259.082 391.235C252.304 388.149 244.922 386.611 237.474 386.733L167.981 386.918Z" fill="url(#paint11_linear_7_78)"/>
<path d="M97.5203 491.231C98.5575 436.312 105.979 425.448 95.008 412.398C90.3592 406.723 83.9117 402.802 76.7301 401.28C69.9902 400.117 63.0545 401.235 57.0232 404.457C35.0115 416.909 41.5343 470.884 56.0322 504.972C59.1899 512.384 67.5566 532.317 77.9978 531.856C82.2389 531.649 85.3735 528.105 87.5632 525.527C97.2437 514.202 97.359 499.471 97.5203 491.231Z" fill="url(#paint12_linear_7_78)"/>
<path d="M87.494 525.757C89.5915 529.025 91.8272 532.179 94.2243 535.263C94.9849 534.48 95.6533 533.698 96.2757 532.961C105.956 521.637 106.071 506.952 106.21 498.666C107.27 443.747 114.715 432.906 103.721 419.832C101.308 416.927 98.4253 414.445 95.1924 412.49C106.025 425.494 98.6497 436.45 97.6125 491.208C97.4512 499.494 97.3359 514.225 87.6554 525.527C87.494 525.619 87.494 525.665 87.494 525.757Z" fill="url(#paint13_linear_7_78)"/>
<path d="M56.3547 445.496C56.9027 439.08 58.1233 432.738 59.9965 426.576C62.9007 415.229 66.5194 409.681 64.1684 407.495C62.6241 406.068 59.5586 407.035 58.9132 407.265C48.5181 410.556 45.3143 430.052 45.7523 442.228C46.0289 449.685 47.8497 458.04 50.5925 458.34C51.0034 458.383 51.4188 458.344 51.8145 458.226C52.2102 458.107 52.5784 457.911 52.8974 457.649C55.9168 455.025 56.1243 449.984 56.3547 445.496Z" fill="white"/>
<path d="M49.2097 466.327C49.2051 466.755 49.3283 467.176 49.5636 467.535C49.7988 467.894 50.1355 468.175 50.531 468.342C50.9265 468.509 51.3628 468.555 51.7846 468.474C52.2064 468.394 52.5946 468.189 52.8999 467.888C53.2052 467.586 53.4139 467.201 53.4994 466.78C53.5848 466.36 53.5434 465.924 53.3801 465.527C53.2168 465.13 52.9391 464.791 52.5823 464.552C52.2256 464.313 51.8057 464.186 51.3762 464.186C50.8056 464.186 50.258 464.411 49.8523 464.812C49.4466 465.212 49.2158 465.757 49.2097 466.327V466.327Z" fill="white"/>
<path style="mix-blend-mode:soft-light" d="M171.139 666C108.675 666 58.0373 645.297 58.0373 619.759C58.0373 594.22 108.675 573.517 171.139 573.517C233.603 573.517 284.24 594.22 284.24 619.759C284.24 645.297 233.603 666 171.139 666Z" fill="url(#paint14_radial_7_78)"/>
<path d="M420.69 263.978C420.69 263.978 415.919 328.426 389.09 343.502C389.09 343.502 475.178 328.656 496.36 296.455C517.542 264.254 420.69 263.978 420.69 263.978Z" fill="url(#paint15_linear_7_78)"/>
<path d="M485.066 78H639.609C700.024 78 749 126.903 749 187.228C749 247.552 700.024 296.455 639.609 296.455H485.066C424.651 296.455 375.675 247.552 375.675 187.228C375.675 126.903 424.651 78 485.066 78Z" fill="url(#paint16_linear_7_78)"/>
<path d="M673.883 170.92C673.491 177.986 673.538 183.718 674.022 183.764C674.506 183.81 675.197 178.078 675.612 171.012C676.027 163.946 675.935 158.215 675.474 158.192C675.013 158.169 674.275 163.854 673.883 170.92Z" fill="white"/>
<path d="M415.642 310.473C412.346 319.68 408.889 325.112 409.673 325.618C410.456 326.124 416.587 320.301 420.045 312.567C426.222 299.056 422.903 284.417 421.589 284.371C420.275 284.325 421.266 294.752 415.642 310.473Z" fill="white"/>
</g>
<defs>
<linearGradient id="paint0_linear_7_78" x1="304.788" y1="409.205" x2="99.3075" y2="569.151" gradientUnits="userSpaceOnUse">
<stop offset="0.04" stop-color="#06BED8"/>
<stop offset="1" stop-color="#DEFA8E"/>
</linearGradient>
<linearGradient id="paint1_linear_7_78" x1="199.789" y1="60.0746" x2="165.932" y2="55.1356" gradientUnits="userSpaceOnUse">
<stop offset="0.04" stop-color="#06CFF1"/>
<stop offset="1" stop-color="#DEFA8E"/>
</linearGradient>
<linearGradient id="paint2_linear_7_78" x1="208.432" y1="145.974" x2="148.413" y2="78.1066" gradientUnits="userSpaceOnUse">
<stop offset="0.04" stop-color="#06CFF1"/>
<stop offset="1" stop-color="#DEFA8E"/>
</linearGradient>
<linearGradient id="paint3_linear_7_78" x1="295.511" y1="380.749" x2="57.6295" y2="142.538" gradientUnits="userSpaceOnUse">
<stop offset="0.04" stop-color="#06CFF1"/>
<stop offset="1" stop-color="#DEFA8E"/>
</linearGradient>
<linearGradient id="paint4_linear_7_78" x1="177.408" y1="291.765" x2="175.293" y2="196.635" gradientUnits="userSpaceOnUse">
<stop stop-color="#030D14"/>
<stop offset="1" stop-color="#0B2F45"/>
</linearGradient>
<radialGradient id="paint5_radial_7_78" cx="0" cy="0" r="1" gradientUnits="userSpaceOnUse" gradientTransform="translate(232.703 243.475) rotate(180) scale(39.5982 39.5434)">
<stop offset="0.13" stop-color="#3280FC"/>
<stop offset="1"/>
</radialGradient>
<linearGradient id="paint6_linear_7_78" x1="256.835" y1="243.475" x2="208.593" y2="243.475" gradientUnits="userSpaceOnUse">
<stop stop-color="#030D14"/>
<stop offset="1" stop-color="#0B2F45"/>
</linearGradient>
<radialGradient id="paint7_radial_7_78" cx="0" cy="0" r="1" gradientUnits="userSpaceOnUse" gradientTransform="translate(124.626 243.475) rotate(180) scale(39.5982 39.5434)">
<stop offset="0.13" stop-color="#3280FC"/>
<stop offset="1"/>
</radialGradient>
<linearGradient id="paint8_linear_7_78" x1="148.735" y1="243.475" x2="100.494" y2="243.475" gradientUnits="userSpaceOnUse">
<stop stop-color="#030D14"/>
<stop offset="1" stop-color="#0B2F45"/>
</linearGradient>
<linearGradient id="paint9_linear_7_78" x1="207.233" y1="19.2423" x2="162.406" y2="12.6877" gradientUnits="userSpaceOnUse">
<stop offset="0.04" stop-color="#06CFF1"/>
<stop offset="1" stop-color="#DEFA8E"/>
</linearGradient>
<linearGradient id="paint10_linear_7_78" x1="243.374" y1="537.726" x2="60.9337" y2="324.384" gradientUnits="userSpaceOnUse">
<stop offset="0.04" stop-color="#06CFF1"/>
<stop offset="0.16" stop-color="#37D9DB"/>
<stop offset="0.27" stop-color="#5DE0CA"/>
<stop offset="0.38" stop-color="#78E6BD"/>
<stop offset="0.47" stop-color="#88E9B6"/>
<stop offset="0.54" stop-color="#8EEAB3"/>
<stop offset="0.8" stop-color="#B9F39F"/>
<stop offset="1" stop-color="#DEFA8E"/>
</linearGradient>
<linearGradient id="paint11_linear_7_78" x1="253.055" y1="431.479" x2="143.333" y2="303.192" gradientUnits="userSpaceOnUse">
<stop offset="0.04" stop-color="#06CFF1"/>
<stop offset="1" stop-color="#DEFA8E"/>
</linearGradient>
<linearGradient id="paint12_linear_7_78" x1="17.8236" y1="507.086" x2="154.762" y2="406.935" gradientUnits="userSpaceOnUse">
<stop offset="0.04" stop-color="#06CFF1"/>
<stop offset="0.07" stop-color="#0FD1ED"/>
<stop offset="0.42" stop-color="#67E2C5"/>
<stop offset="0.69" stop-color="#A7EFA7"/>
<stop offset="0.9" stop-color="#CFF795"/>
<stop offset="1" stop-color="#DEFA8E"/>
</linearGradient>
<linearGradient id="paint13_linear_7_78" x1="137.51" y1="496.203" x2="40.6006" y2="445.639" gradientUnits="userSpaceOnUse">
<stop offset="0.04" stop-color="#06BED8"/>
<stop offset="1" stop-color="#DEFA8E"/>
</linearGradient>
<radialGradient id="paint14_radial_7_78" cx="0" cy="0" r="1" gradientUnits="userSpaceOnUse" gradientTransform="translate(172.293 618.365) rotate(180) scale(112.882 45.7601)">
<stop offset="0.682292" stop-color="#9B0404" stop-opacity="0.6"/>
<stop offset="1" stop-color="white"/>
</radialGradient>
<linearGradient id="paint15_linear_7_78" x1="465.659" y1="258.684" x2="436.09" y2="339.041" gradientUnits="userSpaceOnUse">
<stop stop-color="#AEF0EB"/>
<stop offset="0.01" stop-color="#B0F0EB"/>
<stop offset="0.14" stop-color="#C2F4EB"/>
<stop offset="0.29" stop-color="#CEF6EA"/>
<stop offset="0.5" stop-color="#D5F8EA"/>
<stop offset="1" stop-color="#D7F8EA"/>
</linearGradient>
<linearGradient id="paint16_linear_7_78" x1="749" y1="187.239" x2="375.675" y2="187.239" gradientUnits="userSpaceOnUse">
<stop stop-color="#D7F8EA"/>
<stop offset="0.51" stop-color="#ECF8F2"/>
<stop offset="1" stop-color="#D7F8EA"/>
</linearGradient>
<clipPath id="clip0_7_78">
<rect width="749" height="666" fill="white" transform="matrix(-1 0 0 1 749 0)"/>
</clipPath>
</defs>
</svg>
